<svg id="Layer_1" enable-background="new 0 0 511.334 511.334" height="512" viewBox="0 0 511.334 511.334" width="512" xmlns="http://www.w3.org/2000/svg"><path d="m362.334 127.334h86l-6.799 9.065c-10.493 13.99-.226 33.602 16.783 33.602 6.385 0 12.691-2.9 16.816-8.4 34.442-45.922 33.176-43.746 34.648-47.36 1.268-3.12 1.844-6.727 1.376-10.499-.937-7.534-1.392-6.498-36.024-52.674-6.958-9.276-20.119-11.159-29.399-4.2-9.278 6.959-11.159 20.121-4.2 29.399l6.8 9.067h-86c-11.598 0-21 9.402-21 21s9.401 21 20.999 21z"/><path d="m149 341.334h-86l6.8-9.067c6.959-9.278 5.078-22.44-4.2-29.399-9.278-6.961-22.441-5.079-29.399 4.2-33.975 45.299-33.704 44.225-35.188 48.833-.973 3.029-1.322 6.611-.649 10.255 1.24 6.714 1.226 5.299 35.836 51.444 4.126 5.501 10.431 8.401 16.816 8.4 16.971 0 27.311-19.565 16.783-33.602l-6.799-9.064h86c11.598 0 21-9.402 21-21s-9.402-21-21-21z"/><path d="m511.334 341.334v-21c0-23.71-19.29-43-43-43h-212c-23.71 0-43 19.29-43 43v21z"/><path d="m213.334 383.334v63.666c0 23.71 19.29 43 43 43h212c23.71 0 43-19.29 43-43v-63.666z"/><path d="m298 85.334v-21c0-23.71-19.29-43-43-43h-212c-23.71 0-43 19.29-43 43v21z"/><path d="m0 127.334v63.666c0 23.71 19.29 43 43 43h212c23.71 0 43-19.29 43-43v-63.666z"/></svg>